<svg width="169" height="46" viewBox="0 0 169 46" fill="none" xmlns="http://www.w3.org/2000/svg">
<path d="M72.75 34.8125C72.0208 35.1979 70.9219 35.3906 69.4531 35.3906C65.974 35.3906 64.2344 33.5833 64.2344 29.9688V22.6406H61.6406V19H64.2344V15.5469L69.1562 14.1406V19H72.75V22.6406H69.1562V29.1094C69.1562 30.776 69.8177 31.6094 71.1406 31.6094C71.6615 31.6094 72.1979 31.4583 72.75 31.1562V34.8125ZM86.6244 23.4531C86.0306 23.1302 85.3379 22.9688 84.5463 22.9688C83.4733 22.9688 82.6348 23.3646 82.0306 24.1562C81.4265 24.9375 81.1244 26.0052 81.1244 27.3594V35H76.1869V19H81.1244V21.9688H81.1869C81.9681 19.8021 83.3744 18.7188 85.4056 18.7188C85.9265 18.7188 86.3327 18.7812 86.6244 18.9062V23.4531ZM92.2019 16.4688C91.3685 16.4688 90.6863 16.224 90.155 15.7344C89.6238 15.2344 89.3581 14.625 89.3581 13.9062C89.3581 13.1667 89.6238 12.5625 90.155 12.0938C90.6863 11.625 91.3685 11.3906 92.2019 11.3906C93.0456 11.3906 93.7279 11.625 94.2488 12.0938C94.78 12.5625 95.0456 13.1667 95.0456 13.9062C95.0456 14.6562 94.78 15.2708 94.2488 15.75C93.7279 16.2292 93.0456 16.4688 92.2019 16.4688ZM94.6394 35H89.7019V19H94.6394V35ZM104.436 33.1406H104.373V35H99.4356V11.3125H104.373V21.4062H104.436C105.654 19.5417 107.389 18.6094 109.639 18.6094C111.701 18.6094 113.29 19.3177 114.404 20.7344C115.519 22.151 116.076 24.0885 116.076 26.5469C116.076 29.2135 115.425 31.3542 114.123 32.9688C112.821 34.5833 111.081 35.3906 108.904 35.3906C106.936 35.3906 105.446 34.6406 104.436 33.1406ZM104.295 26.3906V28.0312C104.295 29.0625 104.592 29.9167 105.186 30.5938C105.779 31.2708 106.54 31.6094 107.467 31.6094C108.592 31.6094 109.462 31.1771 110.076 30.3125C110.701 29.4375 111.014 28.2031 111.014 26.6094C111.014 25.2865 110.727 24.2552 110.154 23.5156C109.592 22.7656 108.785 22.3906 107.732 22.3906C106.743 22.3906 105.92 22.7604 105.264 23.5C104.618 24.2396 104.295 25.2031 104.295 26.3906ZM134.294 28.4062H123.857C124.024 30.7292 125.487 31.8906 128.248 31.8906C130.008 31.8906 131.555 31.474 132.888 30.6406V34.2031C131.409 34.9948 129.487 35.3906 127.123 35.3906C124.539 35.3906 122.534 34.6771 121.107 33.25C119.68 31.8125 118.966 29.8125 118.966 27.25C118.966 24.5938 119.737 22.4896 121.279 20.9375C122.82 19.3854 124.716 18.6094 126.966 18.6094C129.3 18.6094 131.102 19.3021 132.373 20.6875C133.654 22.0729 134.294 23.9531 134.294 26.3281V28.4062ZM129.716 25.375C129.716 23.0833 128.789 21.9375 126.935 21.9375C126.143 21.9375 125.456 22.2656 124.873 22.9219C124.3 23.5781 123.951 24.3958 123.826 25.375H129.716ZM147.544 34.8125C146.815 35.1979 145.716 35.3906 144.247 35.3906C140.768 35.3906 139.028 33.5833 139.028 29.9688V22.6406H136.434V19H139.028V15.5469L143.95 14.1406V19H147.544V22.6406H143.95V29.1094C143.95 30.776 144.611 31.6094 145.934 31.6094C146.455 31.6094 146.992 31.4583 147.544 31.1562V34.8125ZM158.481 35.3906C155.814 35.3906 153.715 34.6458 152.184 33.1562C150.663 31.6562 149.902 29.625 149.902 27.0625C149.902 24.4167 150.694 22.349 152.277 20.8594C153.861 19.3594 156.001 18.6094 158.699 18.6094C161.356 18.6094 163.439 19.3594 164.949 20.8594C166.46 22.349 167.215 24.3229 167.215 26.7812C167.215 29.4375 166.434 31.5365 164.871 33.0781C163.319 34.6198 161.189 35.3906 158.481 35.3906ZM158.606 22.3906C157.439 22.3906 156.533 22.7917 155.887 23.5938C155.241 24.3958 154.918 25.5312 154.918 27C154.918 30.0729 156.158 31.6094 158.637 31.6094C161.001 31.6094 162.184 30.0312 162.184 26.875C162.184 23.8854 160.991 22.3906 158.606 22.3906Z" fill="white"/>
<rect y="2" width="44" height="44" rx="14" fill="#00B388"/>
<g filter="url(#filter0_d_218_113)">
<ellipse cx="32" cy="35" rx="5" ry="5" fill="white"/>
<rect x="15" y="33" width="19" height="4" rx="2" fill="white"/>
</g>
<g filter="url(#filter1_d_218_113)">
<ellipse cx="32" cy="13" rx="5" ry="5" fill="white"/>
<rect x="15" y="11" width="19" height="4" rx="2" fill="white"/>
</g>
<g filter="url(#filter2_d_218_113)">
<ellipse cx="10" cy="24" rx="5" ry="5" transform="rotate(-180 10 24)" fill="white"/>
<rect x="27" y="26" width="19" height="4" rx="2" transform="rotate(-180 27 26)" fill="white"/>
</g>
<defs>
<filter id="filter0_d_218_113" x="13" y="29" width="26" height="14" filterUnits="userSpaceOnUse" color-interpolation-filters="sRGB">
<feFlood flood-opacity="0" result="BackgroundImageFix"/>
<feColorMatrix in="SourceAlpha" type="matrix" values="0 0 0 0 0 0 0 0 0 0 0 0 0 0 0 0 0 0 127 0" result="hardAlpha"/>
<feOffset dy="1"/>
<feGaussianBlur stdDeviation="1"/>
<feComposite in2="hardAlpha" operator="out"/>
<feColorMatrix type="matrix" values="0 0 0 0 0 0 0 0 0 0 0 0 0 0 0 0 0 0 0.25 0"/>
<feBlend mode="normal" in2="BackgroundImageFix" result="effect1_dropShadow_218_113"/>
<feBlend mode="normal" in="SourceGraphic" in2="effect1_dropShadow_218_113" result="shape"/>
</filter>
<filter id="filter1_d_218_113" x="13" y="7" width="26" height="14" filterUnits="userSpaceOnUse" color-interpolation-filters="sRGB">
<feFlood flood-opacity="0" result="BackgroundImageFix"/>
<feColorMatrix in="SourceAlpha" type="matrix" values="0 0 0 0 0 0 0 0 0 0 0 0 0 0 0 0 0 0 127 0" result="hardAlpha"/>
<feOffset dy="1"/>
<feGaussianBlur stdDeviation="1"/>
<feComposite in2="hardAlpha" operator="out"/>
<feColorMatrix type="matrix" values="0 0 0 0 0 0 0 0 0 0 0 0 0 0 0 0 0 0 0.25 0"/>
<feBlend mode="normal" in2="BackgroundImageFix" result="effect1_dropShadow_218_113"/>
<feBlend mode="normal" in="SourceGraphic" in2="effect1_dropShadow_218_113" result="shape"/>
</filter>
<filter id="filter2_d_218_113" x="3" y="18" width="26" height="14" filterUnits="userSpaceOnUse" color-interpolation-filters="sRGB">
<feFlood flood-opacity="0" result="BackgroundImageFix"/>
<feColorMatrix in="SourceAlpha" type="matrix" values="0 0 0 0 0 0 0 0 0 0 0 0 0 0 0 0 0 0 127 0" result="hardAlpha"/>
<feOffset dy="1"/>
<feGaussianBlur stdDeviation="1"/>
<feComposite in2="hardAlpha" operator="out"/>
<feColorMatrix type="matrix" values="0 0 0 0 0 0 0 0 0 0 0 0 0 0 0 0 0 0 0.25 0"/>
<feBlend mode="normal" in2="BackgroundImageFix" result="effect1_dropShadow_218_113"/>
<feBlend mode="normal" in="SourceGraphic" in2="effect1_dropShadow_218_113" result="shape"/>
</filter>
</defs>
</svg>
